<svg xmlns="http://www.w3.org/2000/svg" viewBox="0 0 1024 1024"><path d="M882.586 410.466h-66.84c-22.428 0-40.61-18.184-40.61-40.614v-17.766c0-138.314-112.124-250.438-250.446-250.438H351.244c-138.316 0-250.442 112.124-250.442 250.438v319.822c0 138.312 112.126 250.444 250.442 250.444H672.75c138.32 0 250.444-112.13 250.444-250.444v-220.83c.002-22.428-18.182-40.612-40.608-40.612zM362.25 311.474H512c27.104 0 49.072 21.972 49.072 49.076 0 27.102-21.968 49.074-49.072 49.074H362.25c-27.102 0-49.074-21.972-49.074-49.074-.002-27.102 21.97-49.076 49.074-49.076zM661.872 709.14H362.25c-27.102 0-49.074-21.972-49.074-49.082 0-27.096 21.972-49.068 49.074-49.068h299.622c27.102 0 49.074 21.972 49.074 49.068 0 27.11-21.974 49.082-49.074 49.082z"/></svg>