<svg version="1.1" xmlns="http://www.w3.org/2000/svg" xmlns:xlink="http://www.w3.org/1999/xlink" viewBox="0 0 1024 1024">
    <path d="M982.016 250.88h-124.928v124.928h-62.464v-124.928h-123.904v-62.464h124.928v-124.928h62.464v124.928h124.928v62.464zM629.76 765.952c0 93.184-84.992 206.848-300.032 206.848-156.672 0-287.744-67.584-287.744-181.248 0-88.064 55.296-201.728 315.392-201.728-38.912-31.744-48.128-75.776-24.576-122.88-152.576 0-230.4-89.088-230.4-202.752 1.024-111.616 82.944-212.992 251.904-212.992 43.008 0 270.336 0 270.336 0l-60.416 63.488h-70.656c50.176 28.672 76.8 88.064 76.8 152.576 0 59.392-32.768 108.544-79.872 144.384-82.944 64.512-61.44 100.352 25.6 163.84 84.992 64.512 113.664 113.664 113.664 190.464zM460.8 271.36c-12.288-95.232-74.752-174.080-147.456-176.128s-120.832 70.656-108.544 166.912c12.288 95.232 81.92 162.816 154.624 164.864 72.704 1.024 114.688-60.416 101.376-155.648zM536.576 775.168c0-78.848-71.68-153.6-192.512-153.6-108.544-1.024-199.68 68.608-199.68 149.504 0 82.944 77.824 151.552 186.368 151.552 138.24 0 205.824-64.512 205.824-147.456z"></path>
</svg>
