<svg version="1.1" xmlns="http://www.w3.org/2000/svg" xmlns:xlink="http://www.w3.org/1999/xlink" viewBox="0 0 1024 1024">
	<path d="M906.24 433.152h-89.088c6.144 25.6 10.24 51.2 10.24 78.848 0 174.080-141.312 315.392-315.392 315.392s-315.392-141.312-315.392-315.392c0-27.648 4.096-53.248 10.24-78.848h-89.088v433.152c0 21.504 17.408 38.912 38.912 38.912h708.608c21.504 0 39.936-17.408 39.936-38.912l1.024-433.152zM906.24 157.696c0-21.504-17.408-38.912-39.936-38.912h-117.76c-21.504 0-38.912 17.408-38.912 38.912v117.76c0 21.504 17.408 38.912 38.912 38.912h117.76c21.504 0 39.936-17.408 39.936-38.912v-117.76zM512 315.392c-108.544 0-196.608 88.064-196.608 196.608s88.064 196.608 196.608 196.608c108.544 0 196.608-88.064 196.608-196.608s-88.064-196.608-196.608-196.608zM906.24 1024h-788.48c-64.512 0-117.76-53.248-117.76-117.76v-788.48c0-64.512 53.248-117.76 117.76-117.76h787.456c65.536 0 118.784 53.248 118.784 117.76v787.456c0 65.536-53.248 118.784-117.76 118.784z"></path>
</svg>