<svg xmlns="http://www.w3.org/2000/svg" viewBox="0 0 1024 1024"><path d="M906.24 433.152h-89.088c6.144 25.6 10.24 51.2 10.24 78.848 0 174.08-141.312 315.392-315.392 315.392S196.608 686.08 196.608 512c0-27.648 4.096-53.248 10.24-78.848H117.76v433.152c0 21.504 17.408 38.912 38.912 38.912H865.28c21.504 0 39.936-17.408 39.936-38.912l1.024-433.152zm0-275.456c0-21.504-17.408-38.912-39.936-38.912h-117.76c-21.504 0-38.912 17.408-38.912 38.912v117.76c0 21.504 17.408 38.912 38.912 38.912h117.76c21.504 0 39.936-17.408 39.936-38.912v-117.76zM512 315.392c-108.544 0-196.608 88.064-196.608 196.608S403.456 708.608 512 708.608c108.544 0 196.608-88.064 196.608-196.608S620.544 315.392 512 315.392zM906.24 1024H117.76C53.248 1024 0 970.752 0 906.24V117.76C0 53.248 53.248 0 117.76 0h787.456C970.752 0 1024 53.248 1024 117.76v787.456C1024 970.752 970.752 1024 906.24 1024z"/></svg>