<svg xmlns="http://www.w3.org/2000/svg" viewBox="0 0 1024 1024"><path d="M341.333 810.667h-128V384h128v426.667zm469.334 0h-128V582.742c0-59.392-21.163-88.96-63.104-88.96-33.237 0-54.315 16.555-64.896 49.707v267.178h-128s1.707-384 0-426.667h101.035l7.808 85.334h2.645c26.24-42.667 68.18-71.595 125.696-71.595 43.734 0 79.105 12.16 106.113 42.708 27.18 30.592 40.704 71.637 40.704 129.28v240.94z"/><path class="path2" d="M343.467 277.333c0 35.346-29.61 64-66.133 64s-66.133-28.654-66.133-64c0-35.346 29.61-64 66.134-64s66.133 28.654 66.133 64z"/></svg>