<svg version="1.1" xmlns="http://www.w3.org/2000/svg" xmlns:xlink="http://www.w3.org/1999/xlink" viewBox="0 0 1024 1024">
	<path d="M341.333 810.667h-128v-426.667h128v426.667zM810.667 810.667h-128v-227.925c0-59.392-21.163-88.96-63.104-88.96-33.237 0-54.315 16.555-64.896 49.707 0 53.845 0 267.179 0 267.179h-128c0 0 1.707-384 0-426.667h101.035l7.808 85.333h2.645c26.24-42.667 68.181-71.595 125.696-71.595 43.733 0 79.104 12.16 106.112 42.709 27.179 30.592 40.704 71.637 40.704 129.28v240.939z"></path>
            <path class="path2" d="M343.467 277.333c0 35.346-29.609 64-66.133 64s-66.133-28.654-66.133-64c0-35.346 29.609-64 66.133-64s66.133 28.654 66.133 64z"></path>
</svg>