<svg xmlns="http://www.w3.org/2000/svg" viewBox="0 0 1024 1024"><path d="M533.504 51.2c-251.904 0-377.856 180.224-377.856 330.752 0 91.136 34.816 172.032 108.544 201.728 12.288 5.12 22.528 0 26.624-13.312 2.048-9.216 8.192-32.768 11.264-41.984 3.072-13.312 2.048-18.432-7.168-29.696-21.504-25.6-34.816-57.344-34.816-103.424 0-134.144 100.352-253.952 261.12-253.952 142.336 0 220.16 87.04 220.16 202.752 0 152.576-67.584 281.6-167.936 281.6-55.296 0-97.28-46.08-83.968-102.4 16.384-66.56 47.104-139.264 47.104-187.392 0-43.008-23.552-79.872-71.68-79.872-56.32 0-102.4 58.368-102.4 137.216 0 50.176 16.384 83.968 16.384 83.968s-58.368 245.76-67.584 288.768c-20.48 86.016-3.072 190.464-2.048 200.704 1.024 6.144 9.216 8.192 12.288 3.072 5.12-7.168 72.704-90.112 95.232-173.056 6.144-23.552 36.864-145.408 36.864-145.408 18.432 34.816 71.68 65.536 129.024 65.536 169.984 0 285.696-155.648 285.696-362.496 0-156.672-133.12-303.104-334.848-303.104z"/></svg>