<svg xmlns="http://www.w3.org/2000/svg" viewBox="0 0 1024 1024"><path d="M415.744 51.2c-6.144 47.104-16.384 87.04-32.768 117.76-15.36 30.72-35.84 57.344-61.44 78.848s-56.32 38.912-93.184 50.176v131.072h101.376v322.56c0 41.984 4.096 73.728 13.312 96.256s24.576 43.008 47.104 62.464c22.528 19.456 50.176 34.816 82.944 45.056s69.632 16.384 111.616 16.384c36.864 0 71.68-4.096 103.424-11.264s67.584-20.48 106.496-38.912V778.24c-46.08 30.72-92.16 45.056-139.264 45.056-26.624 0-49.152-6.144-69.632-18.432-15.36-9.216-25.6-21.504-31.744-35.84-6.144-15.36-8.192-49.152-8.192-102.4V429.056h219.136V284.672H545.792V51.2H415.744z"/></svg>