<svg xmlns="http://www.w3.org/2000/svg" viewBox="0 0 1024 1024"><path d="M972.8 226.304c-33.792 15.36-70.656 25.6-108.544 29.696 38.912-23.552 68.608-60.416 82.944-104.448-36.864 21.504-76.8 37.888-119.808 46.08-34.816-36.864-83.968-59.392-138.24-59.392-121.856 0-211.968 113.664-184.32 232.448-156.672-9.216-295.936-83.968-389.12-198.656-50.176 84.992-25.6 196.608 58.368 252.928-30.72-1.024-60.416-9.216-86.016-23.552-2.048 88.064 60.416 169.984 151.552 187.392-26.624 7.168-55.296 9.216-84.992 3.072 23.552 74.752 94.208 130.048 176.128 131.072-79.872 62.464-179.2 90.112-279.552 77.824 83.968 53.248 183.296 84.992 289.792 84.992 351.232 0 548.864-296.96 537.6-562.176 36.864-26.624 68.608-59.392 94.208-97.28z"/></svg>