<svg xmlns="http://www.w3.org/2000/svg" viewBox="0 0 1024 1024"><path d="M642.282 605.278c0 17.078-13.844 30.922-30.918 30.922h-188.76c-17.076 0-30.916-13.844-30.916-30.922 0-17.07 13.84-30.914 30.916-30.914h188.76c17.074 0 30.918 13.844 30.918 30.914zM422.604 447.502h94.342c17.074 0 30.916-13.842 30.916-30.916 0-17.076-13.842-30.918-30.916-30.918h-94.342c-17.076 0-30.916 13.842-30.916 30.918 0 17.074 13.84 30.916 30.916 30.916zM924.946 100v824h-824V100h824zm-148.95 373.62c0-14.13-11.454-25.586-25.582-25.586h-42.11c-14.128 0-25.584-11.456-25.584-25.586v-11.194c0-87.138-70.638-157.776-157.782-157.776H415.67c-87.14 0-157.78 70.638-157.78 157.776v201.488c0 87.136 70.638 157.78 157.78 157.78h202.546c87.142 0 157.778-70.642 157.778-157.78V473.62z"/></svg>