<svg version="1.1" xmlns="http://www.w3.org/2000/svg" xmlns:xlink="http://www.w3.org/1999/xlink" viewBox="0 0 1024 1024">
	<path d="M532.48 724.992c0 62.464-51.2 111.616-156.672 111.616-82.944 0-142.336-52.224-142.336-115.712 0-61.44 69.632-114.688 152.576-113.664 92.16 1.024 146.432 58.368 146.432 117.76zM1024 0v1024h-1024v-1024h1024zM604.16 717.824c0-58.368-21.504-96.256-87.040-145.408-66.56-48.128-82.944-75.776-19.456-124.928 35.84-27.648 60.416-64.512 60.416-110.592 0-49.152-20.48-94.208-58.368-116.736h54.272l46.080-48.128c0 0-173.056 0-205.824 0-129.024 0-191.488 76.8-191.488 161.792 0 87.040 59.392 154.624 175.104 154.624-18.432 35.84-11.264 69.632 18.432 94.208-198.656 0-240.64 87.040-240.64 153.6 0 87.040 99.328 138.24 219.136 138.24 164.864 1.024 229.376-84.992 229.376-156.672zM872.448 277.504h-94.208v-95.232h-47.104v95.232h-96.256v47.104h95.232v95.232h48.128v-95.232h95.232l-1.024-47.104zM476.16 340.992c-9.216-72.704-57.344-133.12-112.64-134.144-55.296-2.048-93.184 54.272-82.944 126.976 9.216 72.704 62.464 123.904 117.76 125.952 55.296 1.024 87.040-46.080 77.824-118.784z"></path>
</svg>