<svg version="1.1" xmlns="http://www.w3.org/2000/svg" xmlns:xlink="http://www.w3.org/1999/xlink" viewBox="0 0 1024 1024">
	<path d="M789.504 248.832v73.728c0 12.288-9.216 21.504-21.504 21.504h-72.704c-12.288 0-21.504-9.216-21.504-21.504v-73.728c0-12.288 9.216-21.504 21.504-21.504h72.704c12.288 0 21.504 10.24 21.504 21.504zM512 613.376c54.272 0 98.304-44.032 98.304-98.304s-44.032-98.304-98.304-98.304c-54.272 0-98.304 44.032-98.304 98.304s44.032 98.304 98.304 98.304zM1024 0v1024h-1024v-1024h1024zM850.944 414.72h-197.632c20.48 28.672 31.744 62.464 31.744 100.352 0 95.232-77.824 173.056-173.056 173.056s-173.056-77.824-173.056-173.056c0-37.888 12.288-71.68 31.744-100.352h-197.632v304.128c0 73.728 60.416 134.144 134.144 134.144h409.6c73.728 0 134.144-60.416 134.144-134.144v-304.128zM512 648.192c73.728 0 133.12-59.392 133.12-133.12 0-39.936-17.408-75.776-46.080-100.352-10.24-8.192-20.48-15.36-32.768-21.504-16.384-7.168-35.84-12.288-55.296-12.288s-37.888 4.096-55.296 12.288c-12.288 5.12-23.552 12.288-32.768 21.504-27.648 24.576-46.080 60.416-46.080 100.352 1.024 73.728 61.44 133.12 135.168 133.12zM850.944 305.152c0-73.728-60.416-134.144-134.144-134.144h-366.592v168.96h-27.648v-167.936h-15.36c-1.024 0-2.048 0-3.072 0v168.96h-27.648v-165.888c-6.144 2.048-13.312 4.096-19.456 6.144v159.744h-27.648v-144.384c-33.792 24.576-56.32 64.512-56.32 109.568v88.064h215.040c31.744-31.744 74.752-52.224 123.904-52.224 48.128 0 92.16 19.456 123.904 52.224h216.064l-1.024-89.088z"></path>
</svg>