<svg xmlns="http://www.w3.org/2000/svg" viewBox="0 0 1024 1024"><path d="M135.43 808h132V411.43h-132V808zM276 289.143q-.57-29.714-20.57-49.143t-53.144-19.43-54 19.43-20.857 49.143q0 29.143 20.285 48.857t52.857 19.714h.57q33.715 0 54.287-19.714T276 289.143zM610.286 808h132V580.57q0-88-41.714-133.142t-110.286-45.143q-77.714 0-119.43 66.857H472v-57.714H340q1.714 37.714 0 396.57h132V586.286q0-21.714 4-32 8.57-20 25.714-34t42.286-14q66.286 0 66.286 89.714v212zm267.428-570.286v548.57q0 68-48.286 116.287t-116.286 48.287h-548.57q-68 0-116.287-48.286T0 786.286v-548.57q0-68 48.285-116.287T164.57 73.142h548.572q68 0 116.286 48.286t48.286 116.286z"/></svg>