<svg xmlns="http://www.w3.org/2000/svg" viewBox="0 0 1024 1024"><path d="M0 0v1024h1024V0H0zm577.536 686.08c-44.032 0-86.016-23.552-100.352-51.2 0 0-23.552 95.232-28.672 113.664-17.408 64.512-70.656 129.024-74.752 135.168-3.072 4.096-9.216 2.048-10.24-2.048-1.024-8.192-14.336-90.112 1.024-156.672 8.192-33.792 53.248-224.256 53.248-224.256S404.48 474.112 404.48 435.2c0-61.44 35.84-106.496 79.872-106.496 37.888 0 55.296 27.648 55.296 61.44 0 37.888-23.552 94.208-36.864 146.432-10.24 44.032 21.504 78.848 64.512 78.848 77.824 0 130.048-100.352 130.048-219.136 0-90.112-60.416-157.696-171.008-157.696-124.928 0-202.752 93.184-202.752 197.632 0 35.84 10.24 61.44 27.648 80.896 7.168 9.216 8.192 12.288 6.144 22.528-2.048 7.168-6.144 25.6-8.192 32.768-3.072 10.24-11.264 14.336-20.48 10.24-57.344-23.552-83.968-86.016-83.968-157.696 0-116.736 98.304-257.024 293.888-257.024 157.696 0 261.12 113.664 261.12 235.52 0 162.816-90.112 282.624-222.208 282.624z"/></svg>