<svg version="1.1" xmlns="http://www.w3.org/2000/svg" xmlns:xlink="http://www.w3.org/1999/xlink" viewBox="0 0 1024 1024">
	<path d="M0 0v1024h1024v-1024h-1024zM732.16 831.488c-30.72 14.336-58.368 24.576-82.944 30.72s-51.2 8.192-80.896 8.192c-32.768 0-61.44-4.096-87.040-12.288s-47.104-20.48-64.512-35.84c-17.408-15.36-29.696-31.744-36.864-49.152s-10.24-41.984-10.24-74.752v-250.88h-78.848v-102.4c27.648-9.216 52.224-22.528 71.68-38.912 20.48-17.408 35.84-37.888 48.128-61.44s20.48-54.272 24.576-91.136h101.376v181.248h169.984v112.64h-167.936v184.32c0 41.984 2.048 68.608 6.144 79.872 4.096 12.288 12.288 21.504 24.576 28.672 15.36 9.216 33.792 14.336 54.272 14.336 35.84 0 72.704-12.288 108.544-35.84v112.64z"></path>
</svg>