<svg version="1.1" xmlns="http://www.w3.org/2000/svg" xmlns:xlink="http://www.w3.org/1999/xlink" viewBox="0 0 1024 1024">
	<path d="M0 0v1024h1024v-1024h-1024zM797.696 390.144c9.216 196.608-137.216 415.744-397.312 415.744-78.848 0-152.576-23.552-214.016-62.464 73.728 9.216 148.48-12.288 206.848-58.368-61.44-1.024-112.64-41.984-130.048-97.28 21.504 4.096 43.008 3.072 63.488-2.048-67.584-13.312-113.664-73.728-111.616-138.24 18.432 10.24 39.936 16.384 63.488 17.408-62.464-41.984-79.872-123.904-43.008-186.368 68.608 84.992 172.032 140.288 287.744 146.432-20.48-87.040 46.080-172.032 136.192-172.032 39.936 0 76.8 17.408 102.4 44.032 31.744-6.144 61.44-17.408 89.088-33.792-10.24 32.768-32.768 60.416-61.44 76.8 28.672-3.072 55.296-11.264 79.872-21.504-20.48 27.648-44.032 52.224-71.68 71.68z"></path>
</svg>