<svg xmlns="http://www.w3.org/2000/svg" viewBox="0 0 1024 1024"><path d="M596.992 608.256c-13.312 0-23.552 8.192-31.744 18.432v-84.992h-36.864v263.168h36.864v-15.36c10.24 12.288 21.504 17.408 34.816 17.408 23.552 0 32.768-18.432 32.768-43.008V657.408c-1.024-26.624-10.24-49.152-35.84-49.152zm-2.048 151.552c0 6.144-1.024 10.24-3.072 13.312-4.096 5.12-13.312 5.12-18.432 2.048-3.072-1.024-5.12-4.096-8.192-7.168V647.168c2.048-3.072 5.12-5.12 7.168-6.144 6.144-3.072 14.336-3.072 18.432 3.072 3.072 3.072 4.096 8.192 4.096 15.36v100.352zm-138.24-148.48h35.84v194.56h-35.84v-21.504c-7.168 8.192-13.312 14.336-20.48 18.432-19.456 11.264-46.08 11.264-46.08-28.672V611.328h35.84v148.48c0 8.192 2.048 13.312 9.216 13.312s16.384-9.216 21.504-14.336V611.328zm-66.56-31.744H348.16v225.28H307.2v-225.28h-41.984v-37.888h124.928v37.888zm82.944-201.728v-95.232c0-11.264 5.12-19.456 15.36-19.456 11.264 0 16.384 8.192 16.384 19.456v95.232c0 11.264-6.144 19.456-15.36 19.456-10.24 0-16.384-9.216-16.384-19.456zM0 0v1024h1024V0H0zm576.512 226.304H614.4v156.672c0 8.192 2.048 13.312 10.24 13.312 7.168 0 17.408-9.216 22.528-15.36V226.304h37.888V430.08h-37.888v-22.528c-16.384 19.456-32.768 25.6-44.032 25.6-20.48 0-26.624-16.384-26.624-36.864V226.304zm-87.04-2.048c30.72 0 54.272 22.528 54.272 55.296v99.328c0 33.792-23.552 54.272-54.272 54.272-36.864 0-55.296-18.432-55.296-54.272V278.528c0-31.744 21.504-54.272 55.296-54.272zm-153.6-70.656l29.696 110.592L392.192 153.6H435.2l-50.176 164.864v112.64h-43.008v-112.64l-51.2-164.864h45.056zm486.4 629.76c0 48.128-38.912 87.04-87.04 87.04H288.768c-48.128 0-87.04-38.912-87.04-87.04V563.2c0-48.128 38.912-87.04 87.04-87.04h447.488c48.128 0 87.04 38.912 87.04 87.04v220.16zM713.728 606.208c-32.768 0-55.296 23.552-55.296 57.344v87.04c0 34.816 17.408 60.416 52.224 60.416 37.888 0 54.272-22.528 54.272-60.416v-14.336h-36.864v13.312c0 17.408-1.024 27.648-16.384 27.648-14.336 0-15.36-12.288-15.36-27.648v-36.864h68.608v-49.152c0-35.84-16.384-57.344-51.2-57.344zm14.336 76.8H696.32v-19.456c0-13.312 3.072-22.528 16.384-22.528s15.36 9.216 15.36 22.528v19.456z"/></svg>