<svg xmlns="http://www.w3.org/2000/svg" viewBox="0 0 100 100"><path d="M37.5 40c0-1.8 1.4-3.2 3.2-3.2h9.7c1.8 0 3.2 1.4 3.2 3.2 0 1.8-1.4 3.2-3.2 3.2h-9.7c-1.8 0-3.2-1.4-3.2-3.2zM60 56.3H40.6c-1.8 0-3.2 1.4-3.2 3.2s1.4 3.2 3.2 3.2H60c1.8 0 3.2-1.4 3.2-3.2s-1.4-3.2-3.2-3.2zm39.7-6.5c0 27.5-22.3 49.8-49.8 49.8S0 77.4 0 49.8 22.3 0 49.8 0s49.9 22.3 49.9 49.8zM77 45.9c0-1.5-1.2-2.6-2.6-2.6H70c-1.5 0-2.6-1.2-2.6-2.6v-1.2c0-9-7.3-16.2-16.2-16.2H39.9c-9 0-16.2 7.3-16.2 16.2v20.7c0 9 7.3 16.2 16.2 16.2h20.8c9 0 16.2-7.3 16.2-16.2l.1-14.3z"/></svg>