<svg version="1.1" xmlns="http://www.w3.org/2000/svg" xmlns:xlink="http://www.w3.org/1999/xlink" viewBox="0 0 100 100" enable-background="new 0 0 100 100" xml:space="preserve">
<path d="M37.5,40c0-1.8,1.4-3.2,3.2-3.2h9.7c1.8,0,3.2,1.4,3.2,3.2c0,1.8-1.4,3.2-3.2,3.2h-9.7C38.9,43.2,37.5,41.8,37.5,40
	C37.5,40,37.5,40,37.5,40z M60,56.3H40.6c-1.8,0-3.2,1.4-3.2,3.2s1.4,3.2,3.2,3.2H60c1.8,0,3.2-1.4,3.2-3.2S61.8,56.3,60,56.3z
	 M99.7,49.8c0,27.5-22.3,49.8-49.8,49.8S0,77.4,0,49.8S22.3,0,49.8,0S99.7,22.3,99.7,49.8z M77,45.9c0-1.5-1.2-2.6-2.6-2.6H70
	c-1.5,0-2.6-1.2-2.6-2.6v-1.2c0-9-7.3-16.2-16.2-16.2H39.9c-9,0-16.2,7.3-16.2,16.2v20.7c0,9,7.3,16.2,16.2,16.2h20.8
	c9,0,16.2-7.3,16.2-16.2L77,45.9L77,45.9L77,45.9z"/>
</svg>