<svg version="1.1" xmlns="http://www.w3.org/2000/svg" xmlns:xlink="http://www.w3.org/1999/xlink" viewBox="0 0 1024 1024">
    <path d="M512 0c-282.624 0-512 229.376-512 512s229.376 512 512 512 512-229.376 512-512-229.376-512-512-512zM663.552 301.056c0 0-51.2 0-71.68 0-25.6 0-30.72 10.24-30.72 36.864 0 21.504 0 63.488 0 63.488h102.4l-10.24 110.592h-92.16v330.752h-132.096v-329.728h-68.608v-112.64h68.608c0 0 0-16.384 0-88.064 0-82.944 44.032-125.952 142.336-125.952 16.384 0 91.136 0 91.136 0l1.024 114.688z"></path>
</svg>
