<svg version="1.1" xmlns="http://www.w3.org/2000/svg" xmlns:xlink="http://www.w3.org/1999/xlink" viewBox="0 0 1024 1024">
    <path d="M553.984 697.344c0 50.176-40.96 90.112-125.952 90.112-66.56 0-113.664-41.984-113.664-92.16 0-49.152 56.32-92.16 121.856-91.136 73.728 0 117.76 45.056 117.76 93.184zM1024 512c0 282.624-229.376 512-512 512s-512-229.376-512-512 229.376-512 512-512 512 229.376 512 512zM611.328 691.2c0-46.080-17.408-76.8-69.632-115.712-53.248-38.912-66.56-60.416-15.36-100.352 28.672-22.528 49.152-51.2 49.152-88.064 0-39.936-16.384-75.776-47.104-93.184h43.008l36.864-38.912c0 0-139.264 0-164.864 0-102.4 0-153.6 61.44-153.6 129.024 0 69.632 47.104 123.904 140.288 123.904-14.336 28.672-8.192 56.32 15.36 74.752-158.72 0-192.512 69.632-192.512 122.88 0 69.632 79.872 110.592 175.104 110.592 131.072 2.048 183.296-67.584 183.296-124.928zM826.368 338.944h-75.776v-75.776h-37.888v75.776h-75.776v37.888h75.776v75.776h37.888v-75.776h75.776v-37.888zM507.904 390.144c-7.168-58.368-46.080-106.496-90.112-107.52s-73.728 43.008-66.56 101.376c7.168 58.368 50.176 99.328 94.208 100.352 45.056 1.024 70.656-35.84 62.464-94.208z"></path>
</svg>
