<svg xmlns="http://www.w3.org/2000/svg" viewBox="0 0 1024 1024"><path d="M1024 512c0 282.8-229.2 512-512 512S0 794.8 0 512 229.2 0 512 0s512 229.2 512 512zm-675.7-56.4v112.9s109.5-.1 154.1-.1c-24.1 73.2-61.7 113-154.1 113-93.5 0-166.5-75.8-166.5-169.3 0-93.5 73-169.3 166.5-169.3 49.4 0 81.4 17.4 110.6 41.6 23.4-23.4 21.5-26.8 81.1-83.1-50.5-46.2-117.8-74.3-191.7-74.3-157.4 0-285 127.6-285 285s127.6 285 285 285c235.3 0 292.8-204.9 273.7-341.4H348.3zm443 76.2v101.6h70.5V531.8h98.8v-70.5h-98.8v-98.8h-70.5v98.8H689.8v70.5h101.5z"/></svg>