<svg xmlns="http://www.w3.org/2000/svg" viewBox="0 0 1024 1024"><path d="M755.712 288.768v62.464c0 10.24-8.192 18.432-18.432 18.432h-61.44c-10.24 0-18.432-8.192-18.432-18.432v-62.464c0-10.24 8.192-18.432 18.432-18.432h61.44c10.24 0 18.432 8.192 18.432 18.432zM519.168 598.016c46.08 0 83.968-37.888 83.968-83.968s-37.888-83.968-83.968-83.968-83.968 37.888-83.968 83.968c0 47.104 37.888 83.968 83.968 83.968zM1024 512c0 282.624-229.376 512-512 512S0 794.624 0 512 229.376 0 512 0s512 229.376 512 512zm-217.088-82.944H638.976c17.408 24.576 27.648 53.248 27.648 84.992 0 80.896-65.536 147.456-147.456 147.456-80.896 0-147.456-65.536-147.456-147.456 0-31.744 10.24-61.44 27.648-84.992H231.424v258.048c0 62.464 51.2 113.664 113.664 113.664h348.16c62.464 0 113.664-51.2 113.664-113.664V429.056zM519.168 627.712c62.464 0 113.664-51.2 113.664-113.664 0-33.792-15.36-64.512-38.912-84.992-8.192-7.168-17.408-13.312-27.648-18.432-14.336-6.144-29.696-10.24-47.104-10.24-16.384 0-32.768 4.096-47.104 10.24-10.24 5.12-19.456 10.24-27.648 18.432-23.552 20.48-38.912 51.2-38.912 84.992 0 63.488 51.2 113.664 113.664 113.664zm287.744-290.816c0-62.464-51.2-113.664-113.664-113.664H381.952v143.36H358.4v-143.36h-16.384v143.36h-23.552V225.28c-6.144 1.024-11.264 3.072-16.384 5.12v135.168h-23.552v-122.88c-28.672 20.48-48.128 54.272-48.128 93.184v74.752h182.272c26.624-26.624 63.488-44.032 105.472-44.032 40.96 0 77.824 16.384 105.472 44.032h183.296v-73.728z"/></svg>