<svg xmlns="http://www.w3.org/2000/svg" viewBox="0 0 1024 1024"><path d="M404.48 512c0-61.44 49.152-110.592 110.592-110.592 60.416 0 109.568 49.152 109.568 110.592s-49.152 110.592-110.592 110.592c-60.416 0-109.568-49.152-109.568-110.592zm286.72 0c0 97.28-78.848 177.152-177.152 177.152-97.28 0-176.128-79.872-176.128-177.152 0-15.36 2.048-29.696 6.144-44.032h-50.176v242.688c0 12.288 10.24 22.528 22.528 22.528h397.312c12.288 0 22.528-10.24 22.528-22.528V467.968H686.08c3.072 14.336 5.12 28.672 5.12 44.032zm22.528-221.184h-66.56c-12.288 0-22.528 10.24-22.528 22.528v66.56c0 12.288 10.24 22.528 22.528 22.528h66.56c12.288 0 22.528-10.24 22.528-22.528v-66.56c-1.024-12.288-10.24-22.528-22.528-22.528zM1024 512c0 282.624-229.376 512-512 512S0 794.624 0 512 229.376 0 512 0s512 229.376 512 512zM801.792 290.816c0-36.864-29.696-66.56-66.56-66.56H293.888c-36.864 0-66.56 29.696-66.56 66.56v442.368c0 36.864 29.696 66.56 66.56 66.56h442.368c36.864 0 66.56-29.696 66.56-66.56l-1.024-442.368z"/></svg>