<svg version="1.1" xmlns="http://www.w3.org/2000/svg" xmlns:xlink="http://www.w3.org/1999/xlink" viewBox="0 0 1024 1024">
	<path d="M404.48 512c0-61.44 49.152-110.592 110.592-110.592 60.416 0 109.568 49.152 109.568 110.592s-49.152 110.592-110.592 110.592c-60.416 0-109.568-49.152-109.568-110.592zM691.2 512c0 97.28-78.848 177.152-177.152 177.152-97.28 0-176.128-79.872-176.128-177.152 0-15.36 2.048-29.696 6.144-44.032h-50.176v242.688c0 12.288 10.24 22.528 22.528 22.528h397.312c12.288 0 22.528-10.24 22.528-22.528v-242.688h-50.176c3.072 14.336 5.12 28.672 5.12 44.032zM713.728 290.816h-66.56c-12.288 0-22.528 10.24-22.528 22.528v66.56c0 12.288 10.24 22.528 22.528 22.528h66.56c12.288 0 22.528-10.24 22.528-22.528v-66.56c-1.024-12.288-10.24-22.528-22.528-22.528zM1024 512c0 282.624-229.376 512-512 512s-512-229.376-512-512 229.376-512 512-512 512 229.376 512 512zM801.792 290.816c0-36.864-29.696-66.56-66.56-66.56h-441.344c-36.864 0-66.56 29.696-66.56 66.56v442.368c0 36.864 29.696 66.56 66.56 66.56h442.368c36.864 0 66.56-29.696 66.56-66.56l-1.024-442.368z"></path>
</svg>