<svg xmlns="http://www.w3.org/2000/svg" viewBox="0 0 1024 1024"><path d="M512 20.48C240.538 20.48 20.48 240.538 20.48 512S240.538 1003.52 512 1003.52 1003.52 783.462 1003.52 512 783.462 20.48 512 20.48zM391.68 715.725h-99.533V395.418h99.533v320.307zm-50.38-359.63c-31.438 0-51.764-22.27-51.764-49.817 0-28.11 20.94-49.715 53.043-49.715s51.762 21.606 52.377 49.715c0 27.546-20.275 49.818-53.658 49.818zm413.9 359.63h-99.533v-177.51c0-41.318-14.438-69.376-50.432-69.376-27.494 0-43.827 18.994-51.046 37.273-2.663 6.502-3.33 15.718-3.33 24.883v184.678h-99.583V497.562c0-39.987-1.28-73.42-2.61-102.195h86.476l4.557 44.493h1.997c13.107-20.89 45.21-51.712 98.918-51.712 65.485 0 114.586 43.878 114.586 138.19v189.388z"/></svg>