<svg version="1.1" xmlns="http://www.w3.org/2000/svg" xmlns:xlink="http://www.w3.org/1999/xlink" viewBox="0 0 1024 1024">
	<path d="M512 0c-282.624 0-512 229.376-512 512s229.376 512 512 512 512-229.376 512-512-229.376-512-512-512zM579.584 680.96c-39.936 0-77.824-21.504-90.112-46.080 0 0-21.504 84.992-25.6 101.376-16.384 58.368-63.488 116.736-66.56 120.832-2.048 3.072-8.192 2.048-9.216-2.048-1.024-7.168-13.312-80.896 1.024-141.312 7.168-29.696 48.128-201.728 48.128-201.728s-12.288-23.552-12.288-58.368c0-55.296 31.744-96.256 71.68-96.256 33.792 0 50.176 25.6 50.176 55.296 0 33.792-21.504 84.992-32.768 131.072-9.216 38.912 19.456 71.68 58.368 71.68 70.656 0 117.76-90.112 117.76-196.608 0-80.896-54.272-142.336-154.624-142.336-112.64 0-182.272 83.968-182.272 177.152 0 32.768 9.216 55.296 24.576 72.704 7.168 8.192 8.192 11.264 5.12 20.48-2.048 7.168-6.144 23.552-7.168 29.696-2.048 9.216-10.24 12.288-18.432 9.216-52.224-21.504-75.776-77.824-75.776-141.312 0-105.472 89.088-231.424 265.216-231.424 141.312 0 234.496 102.4 234.496 211.968-2.048 147.456-82.944 256-201.728 256z"></path>
</svg>