<svg xmlns="http://www.w3.org/2000/svg" viewBox="0 0 1024 1024"><path d="M512 0C229.376 0 0 229.376 0 512s229.376 512 512 512 512-229.376 512-512S794.624 0 512 0zm198.656 790.528c-26.624 12.288-50.176 20.48-70.656 25.6-21.504 5.12-44.032 7.168-68.608 7.168-27.648 0-53.248-3.072-74.752-10.24s-39.936-17.408-55.296-30.72c-15.36-13.312-25.6-26.624-31.744-41.984-6.144-14.336-9.216-35.84-9.216-64.512V460.8H332.8v-87.04c23.552-8.192 44.032-19.456 61.44-33.792s30.72-31.744 40.96-52.224c10.24-20.48 17.408-46.08 21.504-77.824h87.04v155.648h145.408v96.256H544.768V619.52c0 35.84 2.048 58.368 6.144 68.608s11.264 18.432 21.504 24.576c13.312 8.192 28.672 12.288 46.08 12.288 30.72 0 61.44-10.24 92.16-30.72v96.256z"/></svg>