<svg version="1.1" xmlns="http://www.w3.org/2000/svg" xmlns:xlink="http://www.w3.org/1999/xlink" viewBox="0 0 1024 1024">
	<path d="M512 0c-282.624 0-512 229.376-512 512s229.376 512 512 512 512-229.376 512-512-229.376-512-512-512zM769.024 423.936c7.168 166.912-116.736 353.28-337.92 353.28-66.56 0-129.024-19.456-182.272-53.248 63.488 7.168 125.952-10.24 176.128-49.152-52.224-1.024-96.256-34.816-110.592-82.944 18.432 3.072 36.864 2.048 53.248-2.048-57.344-11.264-96.256-62.464-95.232-117.76 16.384 9.216 34.816 14.336 54.272 15.36-53.248-35.84-67.584-105.472-36.864-158.72 58.368 71.68 146.432 118.784 244.736 123.904-17.408-74.752 38.912-145.408 115.712-145.408 33.792 0 64.512 14.336 87.040 37.888 26.624-5.12 52.224-15.36 75.776-28.672-9.216 27.648-27.648 51.2-52.224 65.536 23.552-3.072 47.104-9.216 68.608-18.432-16.384 22.528-36.864 44.032-60.416 60.416z"></path>
</svg>