<svg version="1.1" xmlns="http://www.w3.org/2000/svg" xmlns:xlink="http://www.w3.org/1999/xlink" viewBox="0 0 1024 1024">
	<path d="M590.848 588.8c-11.264 0-21.504 7.168-28.672 16.384v-76.8h-32.768v237.568h32.768v-13.312c9.216 11.264 19.456 15.36 30.72 15.36 21.504 0 29.696-16.384 29.696-38.912v-97.28c0-22.528-8.192-43.008-31.744-43.008zM588.8 724.992c0 5.12-1.024 9.216-3.072 12.288-3.072 5.12-11.264 4.096-16.384 2.048-2.048-1.024-5.12-3.072-8.192-6.144v-109.568c2.048-2.048 4.096-4.096 7.168-5.12 6.144-3.072 13.312-2.048 17.408 3.072 2.048 3.072 3.072 7.168 3.072 13.312v90.112zM479.232 380.928v-84.992c0-10.24 5.12-17.408 14.336-17.408 10.24 0 15.36 7.168 15.36 17.408v84.992c0 10.24-5.12 17.408-14.336 17.408-10.24 0-15.36-7.168-15.36-17.408zM464.896 590.848h32.768v175.104h-32.768v-19.456c-6.144 7.168-12.288 12.288-18.432 16.384-17.408 10.24-41.984 10.24-41.984-25.6v-146.432h32.768v134.144c0 7.168 2.048 12.288 8.192 12.288s15.36-8.192 19.456-13.312v-133.12zM404.48 563.2h-37.888v202.752h-36.864v-202.752h-37.888v-34.816h112.64v34.816zM696.32 586.752c-29.696 0-49.152 21.504-49.152 51.2v78.848c0 31.744 16.384 54.272 47.104 54.272 33.792 0 49.152-20.48 49.152-54.272v-13.312h-33.792v12.288c0 15.36-1.024 24.576-14.336 24.576s-14.336-11.264-14.336-24.576v-32.768h62.464v-44.032c-1.024-32.768-16.384-52.224-47.104-52.224zM708.608 655.36h-28.672v-17.408c0-12.288 2.048-20.48 14.336-20.48 11.264 0 14.336 8.192 14.336 20.48v17.408zM512 0c-282.624 0-512 229.376-512 512s229.376 512 512 512c282.624 0 512-229.376 512-512s-229.376-512-512-512zM572.416 244.736h33.792v140.288c0 7.168 2.048 12.288 9.216 12.288s16.384-8.192 20.48-13.312v-139.264h33.792v183.296h-33.792v-20.48c-14.336 17.408-28.672 22.528-39.936 22.528-18.432 0-23.552-14.336-23.552-32.768v-152.576zM494.592 243.712c27.648 0 49.152 20.48 49.152 49.152v90.112c0 30.72-21.504 49.152-49.152 49.152-32.768 0-50.176-16.384-50.176-49.152v-90.112c0-29.696 19.456-49.152 50.176-49.152zM355.328 179.2l26.624 99.328 24.576-99.328h38.912l-44.032 148.48v101.376h-38.912v-101.376l-45.056-148.48h37.888zM793.6 746.496c0 43.008-34.816 77.824-77.824 77.824h-402.432c-43.008 0-77.824-34.816-77.824-77.824v-197.632c0-43.008 34.816-77.824 77.824-77.824h402.432c43.008 0 77.824 34.816 77.824 77.824v197.632z"></path>
</svg>