<svg version="1.1" xmlns="http://www.w3.org/2000/svg" xmlns:xlink="http://www.w3.org/1999/xlink" viewBox="0 0 1024 1024">
	<path d="M512.834 180c88.68 0 172.052 34.534 234.76 97.24 62.708 62.708 97.24 146.080 97.24 234.76s-34.534 172.052-97.24 234.76c-62.708 62.706-146.080 97.24-234.76 97.24s-172.052-34.536-234.76-97.24c-62.708-62.708-97.24-146.080-97.24-234.76s34.534-172.052 97.24-234.76c62.708-62.706 146.080-97.24 234.76-97.24zM512.834 100c-227.542 0-412 184.458-412 412s184.458 412 412 412 412-184.458 412-412-184.458-412-412-412v0zM695.952 463.474h-31.948c-10.716 0-19.406-8.692-19.406-19.412v-8.49c0-66.106-53.588-119.694-119.698-119.694h-82.892c-66.108 0-119.696 53.588-119.696 119.694v152.852c0 66.106 53.588 119.696 119.696 119.696h153.656c66.11 0 119.694-53.59 119.694-119.696v-105.542c0-10.718-8.688-19.408-19.406-19.408zM447.268 416.162h71.566c12.956 0 23.458 10.502 23.458 23.456 0 12.952-10.502 23.454-23.458 23.454h-71.566c-12.958 0-23.458-10.502-23.458-23.454 0-12.954 10.5-23.456 23.458-23.456zM590.462 606.22h-143.196c-12.958 0-23.458-10.502-23.458-23.458 0-12.95 10.5-23.454 23.458-23.454h143.196c12.954 0 23.456 10.504 23.456 23.454 0 12.956-10.502 23.458-23.456 23.458z"></path>
</svg>