<svg xmlns="http://www.w3.org/2000/svg" viewBox="0 0 1024 1024"><path d="M512.834 180c88.68 0 172.052 34.534 234.76 97.24 62.708 62.708 97.24 146.08 97.24 234.76s-34.534 172.052-97.24 234.76C684.886 809.466 601.514 844 512.834 844s-172.052-34.536-234.76-97.24c-62.708-62.708-97.24-146.08-97.24-234.76s34.534-172.052 97.24-234.76c62.708-62.706 146.08-97.24 234.76-97.24zm0-80c-227.542 0-412 184.458-412 412s184.458 412 412 412 412-184.458 412-412-184.458-412-412-412zm183.118 363.474h-31.948c-10.716 0-19.406-8.692-19.406-19.412v-8.49c0-66.106-53.588-119.694-119.698-119.694h-82.892c-66.108 0-119.696 53.588-119.696 119.694v152.852c0 66.106 53.588 119.696 119.696 119.696h153.656c66.11 0 119.694-53.59 119.694-119.696V482.882c0-10.718-8.688-19.408-19.406-19.408zm-248.684-47.312h71.566c12.956 0 23.458 10.502 23.458 23.456 0 12.952-10.502 23.454-23.458 23.454h-71.566c-12.958 0-23.458-10.502-23.458-23.454 0-12.954 10.5-23.456 23.458-23.456zM590.462 606.22H447.266c-12.958 0-23.458-10.502-23.458-23.458 0-12.95 10.5-23.454 23.458-23.454h143.196c12.954 0 23.456 10.504 23.456 23.454 0 12.956-10.502 23.458-23.456 23.458z"/></svg>