<svg xmlns="http://www.w3.org/2000/svg" viewBox="0 0 1024 1024"><path d="M512.834 180c88.68 0 172.052 34.534 234.76 97.24 62.708 62.708 97.24 146.08 97.24 234.76s-34.534 172.052-97.24 234.76C684.886 809.466 601.514 844 512.834 844s-172.052-34.536-234.76-97.24c-62.708-62.708-97.24-146.08-97.24-234.76s34.534-172.052 97.24-234.76c62.708-62.706 146.08-97.24 234.76-97.24zm0-80c-227.542 0-412 184.458-412 412s184.458 412 412 412 412-184.458 412-412-184.458-412-412-412zm-56.612 336.266h-47.034v76.772h47.034v225.528h90.44V512.08h63.102l6.716-75.814h-69.818V393.08c0-17.876 3.602-24.954 20.876-24.954h48.942v-78.694h-62.618c-67.298 0-97.64 29.628-97.64 86.372v60.462z"/></svg>