<svg version="1.1" xmlns="http://www.w3.org/2000/svg" xmlns:xlink="http://www.w3.org/1999/xlink" viewBox="0 0 1024 1024">
    <path d="M512.834 180c88.68 0 172.052 34.534 234.76 97.24 62.708 62.708 97.24 146.080 97.24 234.76s-34.534 172.052-97.24 234.76c-62.708 62.706-146.080 97.24-234.76 97.24s-172.052-34.536-234.76-97.24c-62.708-62.708-97.24-146.080-97.24-234.76s34.534-172.052 97.24-234.76c62.708-62.706 146.080-97.24 234.76-97.24zM512.834 100c-227.542 0-412 184.458-412 412s184.458 412 412 412 412-184.458 412-412-184.458-412-412-412v0zM456.222 436.266h-47.034v76.772h47.034v225.528h90.44v-226.486h63.102l6.716-75.814h-69.818c0 0 0-28.31 0-43.186 0-17.876 3.602-24.954 20.876-24.954 13.914 0 48.942 0 48.942 0v-78.694c0 0-51.594 0-62.618 0-67.298 0-97.64 29.628-97.64 86.372 0 49.424 0 60.462 0 60.462z"></path>
</svg>
