<svg xmlns="http://www.w3.org/2000/svg" viewBox="0 0 1024 1024"><path d="M512.2 180.7c88.7 0 172.1 34.5 234.8 97.2 62.7 62.7 97.2 146.1 97.2 234.8S809.7 684.8 747 747.5c-62.7 62.7-146.1 97.2-234.8 97.2s-172.1-34.5-234.8-97.2c-62.7-62.7-97.2-146.1-97.2-234.8s34.5-172.1 97.2-234.8c62.8-62.7 146.1-97.2 234.8-97.2zm0-80c-227.5 0-412 184.5-412 412s184.5 412 412 412 412-184.5 412-412-184.4-412-412-412zM580 477.9c11.7 84.1-23.7 210.3-168.6 210.3-97 0-175.6-78.6-175.6-175.6S314.4 337 411.4 337c45.5 0 87 17.3 118.1 45.7-36.7 34.7-35.5 36.8-50 51.2-18-14.9-37.7-25.6-68.2-25.6-57.6 0-102.6 46.7-102.6 104.3 0 57.6 45 104.3 102.6 104.3 56.9 0 80-24.5 94.9-69.6-27.5 0-94.9.1-94.9.1v-69.5H580zm41.7 47v-43.5h62.6v-60.8h43.5v60.8h60.8v43.5h-60.8v62.6h-43.5v-62.6h-62.6z"/></svg>