<svg version="1.1" xmlns="http://www.w3.org/2000/svg" xmlns:xlink="http://www.w3.org/1999/xlink" viewBox="0 0 1024 1024">
	<path d="M512.834 182c88.68 0 172.052 34.534 234.76 97.24 62.708 62.708 97.24 146.080 97.24 234.76s-34.534 172.052-97.24 234.76c-62.708 62.706-146.080 97.24-234.76 97.24s-172.052-34.536-234.76-97.24c-62.708-62.708-97.24-146.080-97.24-234.76s34.534-172.052 97.24-234.76c62.708-62.706 146.080-97.24 234.76-97.24zM512.834 102c-227.542 0-412 184.458-412 412s184.458 412 412 412 412-184.458 412-412-184.458-412-412-412v0zM524.256 562.042c-38.55-28.114-47.97-43.996-11.174-72.446 20.732-16.032 35.264-37.4 35.264-63.786 0-28.744-11.756-54.822-33.856-67.486h31.326l26.67-27.992c0 0-100.536 0-119.344 0-74.502 0-111.034 44.656-111.034 93.776 0 50.2 34.438 89.736 101.686 89.736-10.426 21.048-6.238 40.49 10.82 54.39-114.852 0-139.43 50.396-139.43 89.218 0 50.302 57.82 80.208 127.156 80.208 94.802 0 132.486-50.242 132.486-91.516 0.002-33.64-12.558-55.62-50.57-84.102zM386.99 423.366c-5.556-42.25 16.016-74.576 48.18-73.618 32.154 0.966 59.672 35.622 65.222 77.86 5.546 42.246-12.958 69.432-45.112 68.474-32.168-0.968-62.738-30.476-68.29-72.716zM442.682 715.304c-47.926 0-82.534-30.336-82.534-66.782 0-35.71 40.612-66.522 88.534-65.994 53.172 0 84.866 33.116 84.866 67.858-0.002 36.446-29.598 64.918-90.866 64.918zM730.48 390.9v27.53h-55.060v55.060h-27.528v-55.060h-55.058v-27.53h55.058v-55.058h27.528v55.058h55.060z"></path>
</svg>