<svg xmlns="http://www.w3.org/2000/svg" viewBox="0 0 1024 1024"><path d="M512 180c88.68 0 172.052 34.534 234.76 97.24C809.466 339.948 844 423.32 844 512s-34.534 172.052-97.24 234.76C684.052 809.464 600.68 844 512 844s-172.052-34.536-234.76-97.24C214.534 684.052 180 600.68 180 512s34.534-172.052 97.24-234.76C339.948 214.534 423.32 180 512 180zm0-80c-227.542 0-412 184.458-412 412s184.458 412 412 412 412-184.458 412-412-184.458-412-412-412zm85.876 355.444h115.046v176.614c0 43.022-34.874 77.896-77.892 77.896H396.974c-43.022 0-77.898-34.876-77.898-77.896V455.444h114.536c-11.724 16.47-18.642 36.6-18.642 58.356 0 55.658 45.12 100.774 100.778 100.774 55.654 0 100.774-45.118 100.774-100.774-.002-21.758-6.924-41.886-18.646-58.356zm115.046-63.498v51.158H587.54c-18.28-18.56-43.69-30.08-71.792-30.08-28.11 0-53.518 11.518-71.796 30.08H319.078v-51.158c0-26.256 13.006-49.458 32.908-63.57v83.876h15.97v-92.594c3.624-1.458 7.378-2.644 11.248-3.546v96.142h15.972v-98.158c.6-.014 1.194-.044 1.798-.044h9.224v98.202h15.968v-98.202h212.862c43.02-.002 77.894 34.872 77.894 77.894zm-35.6-32.83c0-6.9-5.598-12.494-12.498-12.494h-42.108c-6.902 0-12.494 5.594-12.494 12.494v43.036c0 6.9 5.592 12.494 12.494 12.494h42.108c6.9 0 12.498-5.594 12.498-12.494v-43.036zM438.108 513.8c0-23.242 10.282-44.116 26.514-58.356 5.696-4.994 12.122-9.166 19.1-12.34 9.772-4.444 20.608-6.94 32.026-6.94 11.416 0 22.25 2.496 32.024 6.94 6.978 3.174 13.402 7.346 19.098 12.34 16.234 14.242 26.514 35.114 26.514 58.356 0 42.81-34.826 77.638-77.634 77.638-42.814 0-77.642-34.828-77.642-77.638zm20.514 0c0 31.688 25.69 57.38 57.378 57.38 31.692 0 57.378-25.692 57.378-57.38 0-31.692-25.688-57.38-57.378-57.38s-57.378 25.688-57.378 57.38z"/></svg>