<svg xmlns="http://www.w3.org/2000/svg" viewBox="0 0 1024 1024"><path d="M428.075 652.8h-68.267V430.976h68.267V652.8zM393.94 402.517c-24.618 0-36.948-11.392-36.948-34.133 0-9.515 3.5-17.58 10.667-24.192 7.082-6.613 15.828-9.94 26.282-9.94 24.62 0 36.95 11.434 36.95 34.175s-12.29 34.09-36.95 34.09zM681.26 652.8h-69.676V529.067c0-32.213-11.435-48.34-34.176-48.34-18.005 0-29.824 9.002-35.584 27.007-1.835 2.86-2.816 8.576-2.816 17.067v128h-69.675V502.06c0-34.133-.512-57.813-1.408-71.083h59.733l4.267 29.824c15.66-23.722 38.4-35.54 69.675-35.54 23.765 0 42.923 8.277 57.6 24.875 14.763 16.597 22.1 40.533 22.1 71.85v130.817z"/><path class="path2" d="M512 896c-211.755 0-384-172.245-384-384s172.245-384 384-384 384 172.245 384 384-172.245 384-384 384zm0-682.667c-164.65 0-298.667 134.016-298.667 298.667S347.35 810.667 512 810.667 810.667 676.65 810.667 512 676.65 213.333 512 213.333z"/></svg>