<svg version="1.1" xmlns="http://www.w3.org/2000/svg" xmlns:xlink="http://www.w3.org/1999/xlink" viewBox="0 0 1024 1024">
	<path d="M428.075 652.8h-68.267v-221.824h68.267v221.824zM393.941 402.517c-24.619 0-36.949-11.392-36.949-34.133 0-9.515 3.499-17.579 10.667-24.192 7.083-6.613 15.829-9.941 26.283-9.941 24.619 0 36.949 11.435 36.949 34.176s-12.288 34.091-36.949 34.091zM681.259 652.8h-69.675v-123.733c0-32.213-11.435-48.341-34.176-48.341-18.005 0-29.824 9.003-35.584 27.008-1.835 2.859-2.816 8.576-2.816 17.067v128h-69.675v-150.741c0-34.133-0.512-57.813-1.408-71.083h59.733l4.267 29.824c15.659-23.723 38.4-35.541 69.675-35.541 23.765 0 42.923 8.277 57.6 24.875 14.763 16.597 22.101 40.533 22.101 71.851v130.816z"></path>
            <path class="path2" d="M512 896c-211.755 0-384-172.245-384-384s172.245-384 384-384 384 172.245 384 384-172.245 384-384 384zM512 213.333c-164.651 0-298.667 134.016-298.667 298.667s134.016 298.667 298.667 298.667 298.667-134.016 298.667-298.667-134.016-298.667-298.667-298.667z"></path>
</svg>