<svg xmlns="http://www.w3.org/2000/svg" viewBox="0 0 1024 1024"><path d="M512.834 180c88.68 0 172.052 34.534 234.76 97.24 62.708 62.708 97.24 146.08 97.24 234.76s-34.534 172.052-97.24 234.76C684.886 809.466 601.514 844 512.834 844s-172.052-34.536-234.76-97.24c-62.708-62.708-97.24-146.08-97.24-234.76s34.534-172.052 97.24-234.76c62.708-62.706 146.08-97.24 234.76-97.24zm0-80c-227.542 0-412 184.458-412 412s184.458 412 412 412 412-184.458 412-412-184.458-412-412-412zm16.948 198.396c-127.5 0-191.79 91.416-191.79 167.644 0 46.156 17.474 87.218 54.954 102.524 6.146 2.512 11.654.088 13.434-6.716 1.242-4.71 4.176-16.594 5.482-21.538 1.798-6.732 1.104-9.092-3.858-14.958-10.806-12.748-17.712-29.252-17.712-52.626 0-67.822 50.74-128.532 132.126-128.532 72.062 0 111.658 44.036 111.658 102.842 0 77.376-34.244 142.686-85.08 142.686-28.076 0-49.09-23.218-42.356-51.696 8.068-33.998 23.696-70.686 23.696-95.226 0-21.966-11.794-40.288-36.196-40.288-28.702 0-51.756 29.69-51.756 69.46 0 25.33 8.56 42.466 8.56 42.466s-29.37 124.44-34.516 146.232c-10.256 43.402-1.546 96.61-.804 101.98.43 3.184 4.522 3.942 6.374 1.538 2.648-3.456 36.832-45.656 48.45-87.82 3.292-11.94 18.88-73.768 18.88-73.768 9.322 17.786 36.574 33.454 65.548 33.454 86.272 0 144.8-78.648 144.8-183.92.002-79.604-67.422-153.738-169.894-153.738z"/></svg>