<svg version="1.1" xmlns="http://www.w3.org/2000/svg" xmlns:xlink="http://www.w3.org/1999/xlink" viewBox="0 0 1024 1024">
	<path d="M512.834 180c88.68 0 172.052 34.534 234.76 97.24 62.708 62.708 97.24 146.080 97.24 234.76s-34.534 172.052-97.24 234.76c-62.708 62.706-146.080 97.24-234.76 97.24s-172.052-34.536-234.76-97.24c-62.708-62.708-97.24-146.080-97.24-234.76s34.534-172.052 97.24-234.76c62.708-62.706 146.080-97.24 234.76-97.24zM512.834 100c-227.542 0-412 184.458-412 412s184.458 412 412 412 412-184.458 412-412-184.458-412-412-412v0zM470.342 294.076c-2.828 22.872-7.99 41.694-15.484 56.498-7.49 14.812-17.428 27.484-29.82 38.046-12.386 10.556-27.26 18.67-44.636 24.326v63.236h48.606v155.544c0 20.27 2.118 35.732 6.374 46.4 4.242 10.674 11.876 20.752 22.882 30.23 10.994 9.478 24.29 16.772 39.882 21.892 15.58 5.112 33.504 7.674 53.78 7.674 17.862 0 34.482-1.792 49.85-5.374 15.36-3.592 32.53-9.836 51.492-18.762v-69.798c-22.238 14.612-44.592 21.92-67.050 21.92-12.644 0-23.878-2.94-33.688-8.84-7.41-4.348-12.484-10.186-15.21-17.492-2.728-7.304-4.084-23.828-4.084-49.556v-113.84h105.396v-69.678h-105.396v-112.428h-62.894z"></path>
</svg>