<svg xmlns="http://www.w3.org/2000/svg" viewBox="0 0 1024 1024"><path d="M512 180c183.484 0 332 148.488 332 332 0 183.482-148.49 332-332 332-183.486 0-332-148.49-332-332 0-183.482 148.488-332 332-332zm0-80c-227.542 0-412 184.458-412 412s184.458 412 412 412 412-184.458 412-412-184.458-412-412-412zm225.594 303.994c-15.424 6.84-31.998 11.464-49.394 13.542 17.752-10.644 31.392-27.496 37.812-47.58-16.622 9.856-35.024 17.012-54.614 20.87-15.686-16.714-38.04-27.158-62.774-27.158-55.512 0-96.32 51.804-83.778 105.6-71.472-3.586-134.846-37.826-177.26-89.856-22.53 38.646-11.688 89.22 26.616 114.818-14.098-.446-27.364-4.316-38.956-10.758-.932 39.844 27.622 77.104 68.978 85.416-12.104 3.292-25.362 4.046-38.838 1.47 10.944 34.168 42.708 59.032 80.34 59.724-36.158 28.338-81.698 40.99-127.322 35.614 38.056 24.4 83.264 38.64 131.83 38.64 159.668 0 249.878-134.866 244.444-255.822 16.804-12.126 31.384-27.274 42.916-44.52z"/></svg>