<svg xmlns="http://www.w3.org/2000/svg" viewBox="0 0 1024 1024"><path d="M512 100c-227.542 0-412 184.458-412 412s184.458 412 412 412c227.54 0 412-184.458 412-412S739.54 100 512 100zm0 744c-183.488 0-332-148.488-332-332 0-183.486 148.488-332 332-332 183.476 0 332 148.488 332 332 0 183.478-148.49 332-332 332zM378.906 283.374h26.49l18.136 68.062 16.852-68.062h26.722l-30.608 101.214v69.064h-26.304v-69.064l-31.288-101.214zm87.01 138.95c0 22.136 11.568 33.66 34.218 33.66 18.782 0 33.574-12.56 33.574-33.66v-61.572c0-19.66-14.642-33.746-33.574-33.746-20.568 0-34.218 13.592-34.218 33.746v61.572zm24.034-59.498c0-6.876 3.166-11.978 9.726-11.978 7.162 0 10.226 4.95 10.226 11.978v58.428c0 6.838-3.486 11.892-9.768 11.892-6.452 0-10.186-5.276-10.186-11.892v-58.428zm106.89-34.784v95.344c-2.844 3.564-9.176 9.406-13.73 9.406-4.998 0-6.22-3.41-6.22-8.462v-96.29h-23.354v104.99c0 12.408 3.792 22.436 16.312 22.436 7.066 0 16.876-3.676 26.992-15.68v13.866h23.354v-125.61H596.84zM562.488 585.54c1.586 2.094 2.376 5.156 2.376 9.192v61.77c0 3.81-.642 6.558-1.926 8.242-2.452 3.21-7.76 3.066-11.378 1.232-1.702-.858-3.456-2.26-5.268-4.208V587.22c1.512-1.642 3.04-2.86 4.588-3.646 3.894-1.968 8.918-1.586 11.608 1.966zm74.872-2.712c-8.242 0-9.936 5.8-9.936 14.022v12.112h19.65V596.85c0-8.084-1.714-14.022-9.714-14.022zm67.832 88.248c0 29.576-23.976 53.55-53.55 53.55H376.36c-29.574 0-53.548-23.974-53.548-53.55V535.792c0-29.578 23.974-53.552 53.548-53.552h275.28c29.574 0 53.55 23.974 53.55 53.552v135.284zm-292.15-125.17h25.914v-23.54h-76.874v23.54h25.91v138.63h25.048v-138.63zm89.094 19.004h-22.242v90.804c-2.712 3.396-8.74 8.958-13.076 8.958-4.758 0-5.924-3.246-5.924-8.06V564.91H438.65v99.988c0 24.274 16.458 24.42 28.45 17.55 4.434-2.542 8.696-6.25 12.794-11.12v13.208h22.242V564.91zm85.62 28.476c0-16.226-5.392-29.988-21.684-29.988-7.946 0-14.758 5.062-19.78 11.178v-52.208h-22.456v162.17h22.456v-9.196c6.202 7.732 12.984 10.708 21.128 10.708 14.796 0 20.334-11.498 20.334-26.296v-66.368zm82.208 3.684c0-21.622-10.31-35.184-31.648-35.184-20.064 0-33.784 14.416-33.784 35.184v53.696c0 21.54 10.862 37.012 32.098 37.012 23.44 0 33.334-13.96 33.334-37.012v-8.986h-22.89v8.316c0 10.416-.548 16.734-9.938 16.734-8.954 0-9.712-7.762-9.712-16.734V627.53h42.542v-30.46z"/></svg>