<svg version="1.1" xmlns="http://www.w3.org/2000/svg" xmlns:xlink="http://www.w3.org/1999/xlink" viewBox="0 0 1024 1024">
	<path d="M512 100c-227.542 0-412 184.458-412 412s184.458 412 412 412c227.54 0 412-184.458 412-412s-184.46-412-412-412zM512 844c-183.488 0-332-148.488-332-332 0-183.486 148.488-332 332-332 183.476 0 332 148.488 332 332 0 183.478-148.49 332-332 332zM378.906 283.374h26.49l18.136 68.062 16.852-68.062h26.722l-30.608 101.214v69.064h-26.304v-69.064l-31.288-101.214zM465.916 422.324c0 22.136 11.568 33.66 34.218 33.66 18.782 0 33.574-12.56 33.574-33.66v-61.572c0-19.66-14.642-33.746-33.574-33.746-20.568 0-34.218 13.592-34.218 33.746v61.572zM489.95 362.826c0-6.876 3.166-11.978 9.726-11.978 7.162 0 10.226 4.95 10.226 11.978v58.428c0 6.838-3.486 11.892-9.768 11.892-6.452 0-10.186-5.276-10.186-11.892v-58.428zM596.84 328.042v95.344c-2.844 3.564-9.176 9.406-13.73 9.406-4.998 0-6.22-3.41-6.22-8.462v-96.29h-23.354v104.99c0 12.408 3.792 22.436 16.312 22.436 7.066 0 16.876-3.676 26.992-15.68v13.866h23.354v-125.61h-23.354zM562.488 585.54c1.586 2.094 2.376 5.156 2.376 9.192v61.77c0 3.81-0.642 6.558-1.926 8.242-2.452 3.21-7.76 3.066-11.378 1.232-1.702-0.858-3.456-2.26-5.268-4.208v-74.548c1.512-1.642 3.040-2.86 4.588-3.646 3.894-1.968 8.918-1.586 11.608 1.966zM637.36 582.828c-8.242 0-9.936 5.8-9.936 14.022v12.112h19.65v-12.112c0-8.084-1.714-14.022-9.714-14.022zM705.192 671.076c0 29.576-23.976 53.55-53.55 53.55h-275.282c-29.574 0-53.548-23.974-53.548-53.55v-135.284c0-29.578 23.974-53.552 53.548-53.552h275.28c29.574 0 53.55 23.974 53.55 53.552v135.284zM413.042 545.906h25.914v-23.54h-76.874v23.54h25.91v138.63h25.048v-138.63zM502.136 564.91h-22.242v90.804c-2.712 3.396-8.74 8.958-13.076 8.958-4.758 0-5.924-3.246-5.924-8.060v-91.702h-22.244v99.988c0 24.274 16.458 24.42 28.45 17.55 4.434-2.542 8.696-6.25 12.794-11.12v13.208h22.242v-119.626zM587.756 593.386c0-16.226-5.392-29.988-21.684-29.988-7.946 0-14.758 5.062-19.78 11.178v-52.208h-22.456v162.17h22.456v-9.196c6.202 7.732 12.984 10.708 21.128 10.708 14.796 0 20.334-11.498 20.334-26.296v-66.368zM669.964 597.070c0-21.622-10.31-35.184-31.648-35.184-20.064 0-33.784 14.416-33.784 35.184v53.696c0 21.54 10.862 37.012 32.098 37.012 23.44 0 33.334-13.96 33.334-37.012v-8.986h-22.89v8.316c0 10.416-0.548 16.734-9.938 16.734-8.954 0-9.712-7.762-9.712-16.734v-22.566h42.542v-30.46z"></path>
</svg>